<svg width="247" height="242" viewBox="0 0 247 242" fill="none" xmlns="http://www.w3.org/2000/svg">
<path d="M118.493 26.7147C118.011 29.5724 117.549 33.3378 117.257 36.2041C117.163 37.1146 117.329 36.6607 117.27 37.2827C117.156 38.5003 116.965 39.6141 116.867 40.8175C116.835 41.2134 117.062 40.7428 117.025 41.1586C116.822 43.4412 116.527 45.5991 116.303 47.902C116.203 48.9301 116.104 49.9587 116.004 51.0016C115.178 59.868 115.93 68.5964 116.768 77.3216C116.922 78.9663 117.097 80.6279 117.344 82.2938C117.785 85.6206 119.01 89.5103 120.361 92.8063C120.57 93.3337 120.778 93.8525 120.981 94.3611C121.153 94.7889 120.911 94.5933 120.934 94.6789C121.307 96.0271 121.4 95.486 121.798 96.2957C123.389 99.5095 125.164 103.056 126.769 106.103C127.454 107.397 126.485 106.255 127.349 107.464C127.409 107.548 127.363 107.147 127.574 107.489C128.051 108.266 128.901 109.771 129.281 110.368C129.566 110.819 129.76 111.122 129.93 111.388C130.196 111.805 130.403 112.135 130.832 112.793C131.795 114.272 133.06 115.948 134.19 117.471C134.432 117.796 133.976 117.47 134.351 117.998C134.724 118.529 135.824 119.847 136.234 120.257C136.641 120.67 136.575 120.401 136.664 120.459C137.39 120.935 138.488 122.607 138.666 122.794C140.038 124.305 141.441 125.612 142.872 126.818C144.705 128.36 146.586 129.734 148.598 131.121C151.316 133 154.341 134.833 157.137 136.258C158.905 137.162 160.562 137.917 162.229 138.641C163.696 139.277 165.17 139.885 166.736 140.528C167.09 140.673 166.604 140.68 167.036 140.856C171.625 142.724 176.261 144.348 180.979 145.756C181.451 145.896 180.9 145.543 181.373 145.673C182.948 146.108 185.031 146.627 186.852 147.179C188.416 147.656 189.817 148.088 190.566 148.583C192.605 148.99 195.107 149.299 196.964 149.294C198.158 149.287 197.015 149.032 198.468 149.196C198.795 149.229 198.36 149.367 198.852 149.404C200.934 149.558 203.208 149.477 205.267 149.428C205.685 149.418 205.58 149.566 205.701 149.584C206.716 149.726 208.346 149.218 208.695 149.15C211.407 148.65 213.393 148.385 215.897 147.883C216.475 147.765 215.828 148.09 216.388 147.982C217.654 147.735 218.934 147.453 220.192 147.156C221.999 146.743 223.615 145.776 224.908 144.692C225.417 144.263 224.838 144.517 225.073 144.306C225.77 143.668 226.172 143.466 226.659 143.116C226.894 142.944 227.145 142.731 227.431 142.406C227.62 142.191 227.408 142.211 227.433 142.163C227.812 141.418 228.497 141.09 228.635 140.926C230.31 138.868 230.744 137.182 231.704 134.901C231.816 134.625 231.743 135.319 232.045 134.533C232.224 134.059 232.391 133.578 232.548 133.091C234.153 128.071 233.685 122.565 232.699 117.714C232.525 116.881 232.504 117.502 232.479 117.452C232.072 116.644 232.289 116.03 232.245 115.754C232.139 115.124 231.996 114.514 231.847 113.929C231.479 112.494 230.997 111.25 230.895 110.156C228.282 103.617 224.517 97.7878 220.824 92.0186C219.56 90.0622 218.002 88.3217 216.285 86.8024C216.197 86.7245 216.233 86.9902 216.059 86.835C213.929 85.0125 214.486 85.1996 213.221 83.7833C212.895 83.4237 211.516 82.8967 211.394 82.8509C210.961 82.6735 211.205 83.1494 211.069 83.0781C209.943 82.4919 210.581 81.9188 209.133 80.9856C209.087 80.9579 209.196 81.2072 209.066 81.1425C208.664 80.943 208.318 80.6568 207.919 80.4754C206.999 80.0608 206.498 80.2244 205.29 79.274C205.135 79.1544 205.628 78.8843 204.274 78.1705C203.983 78.0179 203.172 77.583 202.365 77.1711C201.653 76.8048 200.929 76.4921 200.595 76.367C199.874 76.0998 200.305 76.442 200.251 76.4265C198.266 75.8655 198.962 76.2349 197.911 76.1879C196.861 76.1677 197.332 75.5849 196.951 75.3922C196.57 75.195 195.074 74.9976 194.706 74.9846C194.337 74.9644 194.762 75.1526 194.438 75.1172C192.293 74.9102 193.574 74.5948 192.894 74.3572C191.271 73.8169 189.896 74.179 188.374 74.0888C187.963 74.0658 188.308 73.9774 187.942 73.9347C186.488 73.7725 185.602 73.8803 183.951 73.6601C183.683 73.6233 182.343 73.2633 181.472 73.4756C181.348 73.5062 181.696 73.6427 181.071 73.6591C180.145 73.683 178.473 73.6969 177.474 73.6545C176.74 73.6227 177.582 73.4083 176.656 73.4762C176.243 73.5071 177.01 73.6294 176.232 73.6773C175.469 73.7241 173.496 73.738 172.75 73.7448C172 73.7507 172.41 73.5831 172.348 73.5731C171.987 73.5152 170.548 73.4601 170.423 73.4627C170.217 73.4655 170.012 73.4687 169.806 73.4723C163.618 73.6081 157.95 74.4568 151.958 75.067C151.472 75.118 151.775 74.9099 151.7 74.916C150.03 75.0456 151.395 75.3373 150.254 75.6303C150.379 75.2659 149.702 75.4114 148.53 75.5227C147.964 75.5765 148.254 75.4041 148.2 75.3971C147.34 75.3021 146.791 75.6403 146.65 75.7132C146.122 75.9826 145.492 75.8308 145.132 76.013C144.775 76.194 145.664 76.2701 144.547 76.4191C144.215 76.3391 145.005 75.9043 144.145 75.9685C142.755 76.072 140.858 76.3366 138.953 76.6408C136.413 77.0434 133.868 77.5617 132.409 77.8409C129.863 78.3301 129.029 78.4828 127.555 78.834C124.9 79.4872 125.828 79.0423 124.143 79.3156C122.457 79.6026 123.402 79.9879 123.194 80.1679C122.991 80.3483 122.712 80.2819 122.434 80.4231C122.162 80.5632 122.808 80.4906 122.136 80.6861C121.465 80.8777 119.564 81.151 119.286 81.0933C118.703 80.9643 119.46 80.4387 117.697 81.05C117.597 81.0855 117.971 81.139 117.585 81.2674C114.494 82.2893 111.3 83.3775 108.323 84.6611C107.916 84.8367 108.349 84.8524 108.111 84.9577C107.578 85.194 107.197 85.3546 106.917 85.4582C105.888 85.8454 106.115 85.4936 104.944 85.7256C105.424 85.9921 104.77 86.5372 102.937 87.4229C101.838 87.9647 101.945 87.7047 101.175 87.9522C100.945 88.025 100.237 88.5509 100.056 88.5504C99.463 88.552 100.016 87.8505 98.2346 89.0258C98.1571 89.0785 98.4938 89.0645 98.2205 89.2363C96.472 90.3622 96.0962 90.2356 94.2122 91.4884C92.8677 92.3847 90.7798 94.198 89.3274 95.5673C89.1834 95.7012 89.0451 95.8304 88.9134 95.9533C89.2634 96.2818 87.8136 97.4784 87.0394 97.7982C86.1284 98.7322 85.1595 99.7568 84.3711 100.74C84.1001 101.079 84.3926 100.955 84.3683 101.006C84.0058 101.793 83.4005 102.021 83.2121 102.231C81.1949 104.52 79.9574 106.684 78.1588 108.969C78.096 109.049 77.7188 109.006 77.5046 109.792C77.4924 109.842 78.1387 109.12 77.4113 110.275C76.682 111.43 75.5002 113.715 74.4193 115.274C74.2653 115.495 73.9208 115.884 73.609 116.351C73.3874 116.682 73.182 117.066 73.0799 117.449C73.0472 117.573 73.1963 117.497 73.1602 117.681C73.0453 118.273 72.5963 118.406 72.5632 119.144C72.5306 119.884 72.1419 121.234 71.2683 122.928C71.242 122.98 70.8237 123.308 70.6205 123.868C70.2921 124.768 69.9009 126.069 69.5912 127.019C69.4433 127.471 69.3779 127.13 69.3495 127.208C68.2795 130.246 67.8135 132.499 67.0219 135.852C66.8778 136.463 66.2187 138.172 66.1123 139.404C65.9959 140.758 67.1079 139.601 66.2216 142.557C65.8948 143.656 64.7076 144.851 64.5587 146.836C64.5461 147.004 64.5419 147.177 64.5474 147.355C63.5325 151.572 63.5361 155.608 63.4699 159.938C63.4668 160.132 63.1978 160.762 63.2254 161.223C63.2665 161.906 63.4273 162.272 63.4705 162.757C63.6586 164.79 63.7543 166.661 64.0514 168.609C64.1662 169.349 64.2658 169.069 64.4105 169.948C64.5583 170.826 64.4726 171.443 64.777 172.616C65.009 173.501 65.5531 174.322 65.8407 175.493C65.4846 175.614 65.6566 176.426 65.8812 177.889C65.8835 177.904 65.8851 177.917 65.8861 177.929C65.914 178.144 65.7309 177.915 65.7498 178.043C65.8276 178.59 66.0692 179.048 66.1481 179.568C66.1679 179.695 66.0474 179.737 66.057 179.843C66.1277 180.749 66.8871 182.038 67.026 182.249C67.5425 183.074 67.5639 183.546 67.9309 184.186C68.302 184.819 67.9328 183.79 68.3297 184.543C68.994 185.796 69.8372 187.317 70.6501 188.648C70.8445 188.968 71.0389 189.282 71.2238 189.574C71.6058 190.177 71.2021 189.857 71.2534 189.945C72.0097 191.221 72.9981 192.352 73.1861 193.22C74.4945 193.562 73.6179 194.006 75.0009 195.622C75.1114 195.75 75.5697 195.675 75.2449 195.123C74.9207 194.572 74.2524 193.86 73.8268 193.079C73.7236 192.895 73.369 191.687 73.3007 191.54C72.7442 190.379 72.1336 190.565 72.0661 190.526C71.4589 190.157 71.0602 189.073 70.8532 188.525C70.8105 188.414 70.7753 188.325 70.7465 188.268C69.9559 186.696 69.1751 185.427 68.6553 184.063C68.3204 183.169 68.6645 182.927 68.3799 182.248C67.5869 180.272 66.9187 179.482 66.6555 177.723L66.6635 177.756C66.6371 177.493 66.6212 177.209 66.6181 176.897C66.6143 176.378 67.148 176.78 66.4361 175.074C66.3907 174.967 65.8102 173.705 65.8671 172.901C65.8742 172.8 66.0019 172.779 65.9891 172.651C65.9017 171.789 65.7001 171.24 65.5963 170.305C65.4932 169.37 65.3991 168.245 65.2184 167.191C65.1086 166.556 64.7747 165.762 64.6833 165.46C64.4191 164.608 64.6146 163.65 64.3683 163.128C64.1216 162.598 63.8837 163.693 63.6499 162.263C63.982 162.188 64.3187 162.045 64.651 161.939C64.4497 158.831 64.359 155.758 64.6788 152.657C64.7197 152.273 64.8592 152.684 64.909 152.274C65.1253 150.55 65.233 149.028 65.6634 147.276C65.6786 147.215 65.6943 147.154 65.7104 147.093C66.0593 145.758 66.5587 144.339 66.9223 142.96C66.7504 141.984 67.3797 139.856 67.7276 138.288C67.8499 137.737 67.7413 137.749 67.8047 137.353C68.0504 135.856 68.2091 136.627 68.3616 136.24C69.0226 134.581 68.3132 134.236 68.8862 132.223C68.915 132.115 69.6789 130.926 69.7572 130.755C70.2487 129.672 69.6738 130.529 69.8557 129.81C70.1918 128.502 70.3777 127.575 71.0003 126.116C71.1817 125.693 71.7881 124.738 71.9186 123.84C71.9362 123.721 71.7863 123.734 71.8127 123.642C72.3079 121.998 72.7312 122.122 73.2426 121.292C73.7531 120.463 74.1357 119.008 74.2039 118.699C74.3699 117.896 73.8439 119.197 73.8092 119.231C73.3583 119.573 73.8692 118.608 74.2483 117.862C73.9313 117.558 74.5337 116.539 74.6476 117.095C74.6591 117.154 74.3077 117.707 74.2483 117.862C74.5033 117.701 74.7569 117.449 74.9911 117.143C75.4149 116.582 75.7875 115.803 76.0439 114.889C76.2349 114.217 75.7211 114.655 76.8492 112.938C77.364 112.163 77.421 112.619 77.9197 111.965C79.0571 110.474 80.1684 108.303 81.3258 106.765C81.7453 106.207 81.4765 106.85 81.7676 106.474C82.5421 105.479 83.1202 104.521 83.9579 103.572C84.034 103.486 83.9875 103.807 84.2351 103.502C86.1206 101.21 87.785 99.2254 90.0646 97.1475C90.1782 97.0447 90.3022 96.9348 90.4347 96.8198C91.5896 95.804 93.4254 94.4284 94.5422 93.6069C96.6784 91.9936 99.3925 90.0701 101.469 89.0581C102.818 88.3993 102.604 88.7029 103.227 88.5181C104.425 88.1615 106.27 86.9269 106.526 86.7601C106.532 86.7528 105.329 87.2314 105.93 86.8785C106.228 86.5577 106.513 86.765 106.526 86.7601C106.584 86.7212 106.891 86.5772 107.301 86.3983C108.095 86.0504 109.255 85.5883 109.579 85.4882C109.847 85.4042 109.756 85.6062 109.895 85.5596C113.189 84.4578 116.502 83.4323 119.882 82.4309C119.941 82.4113 119.804 82.2677 119.945 82.2238C121.892 81.6151 123.221 81.5088 124.888 81.2492C126.558 80.9918 127.848 80.6774 128.771 80.1825C130.03 79.9618 131.794 79.4936 132.818 79.2307C133.847 78.9663 134.044 79.2801 134.137 79.2704C136.151 79.0798 137.548 78.8141 139.224 78.5156C139.943 78.3881 140.725 78.2516 141.617 78.1162C143.036 77.8989 145.852 77.5628 147.393 77.4006C148.61 77.272 149.332 77.0998 150.456 77.0119C150.609 76.9999 150.474 77.1691 150.521 77.1692C151.791 77.1959 151.147 76.9023 151.396 76.8052C152.302 76.4541 152.866 76.2563 154.48 76.1885C154.853 76.1726 155.986 76.5847 156.66 76.5461C157.538 76.495 157.188 76.3384 158.109 76.293C158.187 76.2891 158.183 76.4074 158.746 76.3478C161.363 76.0731 164.218 75.7739 166.934 75.6579C167.304 75.642 166.839 75.8501 167.372 75.8311C168.181 75.8031 169.015 75.78 169.846 75.7648C171.641 75.7321 173.463 75.6827 175.139 75.6106C175.75 75.5841 175.366 75.456 175.498 75.4162C176.305 75.175 177.457 75.5158 177.647 75.5231C182.152 75.7086 185.626 75.4573 190.1 76.1202C190.352 76.1528 192.153 76.7706 193.021 76.6207C193.08 76.6096 193.961 76.4446 194.623 76.8202C194.663 76.8441 194.129 76.8903 195.003 77.0743C195.877 77.2598 197.212 77.7424 198.404 77.9855C198.779 78.0607 199.761 78.0798 200.686 78.8027C200.71 78.8225 200.951 79.0479 201.261 79.3093C201.744 79.7033 202.398 80.168 202.849 80.144C202.973 80.1382 203.08 79.7074 204.222 80.5861C204.439 80.7551 203.962 80.5955 204.558 80.9976C205.466 81.6127 206.769 82.2483 207.795 83.1245C207.976 83.2778 208.645 84.0484 209.415 84.3146C209.536 84.3563 209.422 84.1062 209.776 84.3312C211.453 85.4001 213.025 86.7448 214.536 88.0243C215.071 88.4834 214.968 88.0665 215.537 88.5415C216.107 89.0122 217.152 90.0745 217.545 90.7416C217.935 91.4036 217.148 90.9747 217.802 91.8855C218.132 92.3575 218.447 92.8363 218.745 93.3224C221.15 97.2539 223.739 101.002 225.881 104.976C226.238 105.647 225.834 105.147 226.341 106.14C227.445 108.319 228.841 111.52 229.55 114.473C230.067 116.577 230.472 118.54 230.782 119.939C231.368 122.724 231.085 119.154 231.441 121.305C231.605 122.351 231.254 123.508 231.252 123.755C231.229 126.191 231.339 127.88 230.927 129.983C230.836 130.413 230.747 129.959 230.669 130.322C230.521 130.995 230.365 131.679 230.171 132.339C230.001 132.918 229.818 133.483 229.611 134.008C229.404 134.524 229.32 134.38 229.135 134.852C228.683 135.975 228.254 136.945 227.747 137.998C227.699 138.095 228.219 137.569 227.751 138.326C227.102 139.359 226.254 140.575 225.176 141.474C224.971 141.647 224.765 141.814 224.56 141.97C224.149 142.274 223.947 142.078 223.256 142.882C223.109 143.037 223.545 143.204 222.384 143.607C222.176 143.715 220.414 144.202 219.6 144.581C219.588 144.587 219.576 144.593 219.564 144.599C219.305 144.731 218.652 145.182 218.023 145.274C217.938 145.285 218.238 145.055 217.724 145.152C215.909 145.499 214.03 145.893 212.165 146.148C211.67 146.214 212.378 145.932 211.64 146.035C209.61 146.318 207.082 146.649 205.097 146.818C204.365 146.881 204.879 146.989 204.827 147.007C203.977 147.299 203.452 146.986 203.169 146.976C201.396 146.911 200.048 147.046 198.422 146.919C197.973 146.882 198.301 146.744 198.212 146.725C197.297 146.53 197.968 146.856 197.38 146.845C195.734 146.811 193.911 146.568 192.283 146.248C191.685 146.129 192.39 146.077 191.857 145.971C190.415 145.678 188.961 145.321 187.53 144.904C185.774 144.393 184.015 143.874 182.32 143.382C181.732 143.212 182.056 143.463 181.925 143.454C181.018 143.395 179.887 142.697 179.618 142.575C178.383 142.019 177.848 141.965 176.731 141.551C172.529 139.988 167.568 138.138 163.295 136.264C162.024 135.708 160.814 135.152 159.696 134.612C153.709 131.691 149.193 128.965 144.496 124.934C144.208 124.684 143.92 124.429 143.632 124.169C143.316 123.883 143.76 124.032 143.49 123.783C140.014 120.587 136.913 117.108 134.255 113.165C134.038 112.842 134.501 113.204 134.157 112.682C133.606 111.839 132.939 110.821 132.329 109.894C132.163 109.642 131.999 109.395 131.844 109.164C131.491 108.635 131.805 109.444 131.451 108.907C130.63 107.658 129.82 106.269 129.105 104.905C128.802 104.323 129.433 105.105 129.028 104.356C126.817 100.232 124.828 96.0389 122.983 91.7599C122.545 90.736 122.124 89.7183 121.733 88.6892C121.596 88.3223 121.135 88.1069 120.968 87.2838C121.048 87.1953 121.164 87.1656 121.261 87.1096C120.352 83.8962 119.969 80.5335 119.649 77.0733C119.18 72.0631 118.707 67.1015 118.608 62.1046C118.601 61.7473 118.805 62.3611 118.794 61.67C118.744 58.1896 118.884 54.8144 119.142 51.3437C119.183 50.8101 119.22 50.2807 119.253 49.7552C119.28 49.3449 118.918 49.5067 119.103 48.3153C119.136 48.1047 119.388 46.3013 119.517 45.8329C119.536 45.7708 119.656 46.1187 119.728 45.5368C120.147 42.1449 120.547 38.5892 120.897 35.1981C120.953 34.6568 120.709 35.2076 120.746 34.8236C121.022 32.0575 121.571 29.0769 121.818 26.4308C121.984 24.6595 121.595 25.2633 121.456 24.285C121.435 24.1584 121.606 23.0567 121.449 22.9771C121.055 22.7641 120.512 23.2194 120.103 22.9268C120.014 22.8682 120.357 21.433 119.985 22.2468C119.959 22.3053 119.708 23.3602 119.589 23.6039C119.505 23.781 119.389 23.4225 119.26 23.7849C119.131 24.1466 119.208 24.5767 119.03 25.1849C118.854 25.7801 118.701 25.486 118.493 26.7147ZM137.446 78.1003C138.388 77.7922 138.616 78.3631 137.554 78.3789C137.502 78.3791 137.397 78.1159 137.446 78.1003ZM63.9996 155.766C63.787 154.483 64.2474 153.644 64.3891 154.547C64.5376 155.443 64.0664 156.154 63.9996 155.766ZM64.6295 168.935C64.2108 167.485 65.0217 167.142 65.0745 168.739C65.0783 168.832 64.6543 169.019 64.6295 168.935ZM120.717 28.6087C120.711 28.5953 120.818 27.8092 120.829 27.7914C121.078 27.4019 120.863 28.9711 120.717 28.6087ZM67.3164 181.775C67.0426 181.379 66.7518 180.06 67.0677 180.566C67.3148 180.973 67.6478 182.267 67.3164 181.775ZM188.307 74.3759C188.32 74.3676 188.892 74.4138 188.874 74.4632C188.82 74.6198 188.037 74.5017 188.307 74.3759ZM79.1899 200.626C77.1271 198.039 75.365 196.841 77.6201 199.673C78.0299 200.182 76.9388 198.419 77.4951 199.04C78.5145 200.178 78.7915 201.245 79.9467 202.316C80.1539 202.509 79.3064 200.772 79.1871 200.621C79.188 200.622 79.189 200.624 79.1899 200.626ZM137.895 77.3054C137.912 77.2946 138.69 77.1717 138.711 77.1769C139.161 77.3023 137.594 77.5496 137.895 77.3054ZM217.657 88.4401C217.71 88.4513 218.922 89.846 218.936 89.9129C219.311 90.832 216.896 88.0381 217.657 88.4401ZM88.8986 95.9841C88.1268 96.4238 87.3574 97.1357 87.042 97.7952C87.6398 97.1759 88.2647 96.5748 88.8986 95.9841Z" fill="white"/>
<path d="M79.082 202.352C79.0191 202.281 78.8921 202.307 78.7872 202.361C78.7546 202.377 78.7443 202.484 78.7208 202.5C78.6753 202.532 78.6527 202.473 78.6057 202.513C78.5903 202.527 78.5694 202.695 78.5543 202.705C78.4718 202.764 78.4174 202.709 78.3434 202.731C78.0433 202.823 77.7843 202.857 77.5286 202.891C77.4759 202.898 77.4235 202.906 77.372 202.913C77.2733 202.928 77.1456 203.069 77.0577 202.993C77.0474 202.984 77.0685 202.838 77.0676 202.826C77.053 202.638 77.0343 202.935 77.0092 202.972C76.9087 203.119 76.8142 203.123 76.7395 203.058C76.7079 203.03 76.7725 202.743 76.721 202.902C76.7175 202.913 76.7099 203.07 76.6987 203.085C76.673 203.12 76.6365 203.088 76.6185 203.099C76.5836 203.12 76.5792 203.118 76.549 203.116C76.5072 203.116 76.4509 203.188 76.4103 203.147C76.4018 203.138 76.4322 202.98 76.4207 202.952C76.4092 202.923 76.3685 202.932 76.3507 202.968C76.333 203.004 76.324 203.13 76.3183 203.158C76.2703 203.398 76.2646 203.057 76.2598 203.048C76.1709 202.894 76.0554 203.074 75.9558 203.06C75.8797 203.049 75.8077 202.975 75.7346 202.974C75.6475 202.972 75.5623 203.048 75.4805 203.02C75.4719 203.017 75.5105 202.833 75.5 202.829C75.3907 202.79 75.2742 202.792 75.1408 202.899C75.1272 202.91 75.115 203.076 75.0997 203.097C75.0081 203.22 74.8386 203.522 74.9216 202.805C74.8694 202.824 74.8076 202.843 74.7395 202.978C74.6955 203.065 74.6902 203.248 74.6699 203.166C74.6653 203.148 74.7034 202.994 74.6944 202.978C74.6569 202.913 74.5962 202.954 74.5633 202.864C74.5567 202.846 74.5854 202.707 74.5873 202.682C74.603 202.475 74.5024 202.803 74.4893 202.826C74.3914 202.995 74.3589 202.915 74.2992 202.908C74.2853 202.906 74.338 202.723 74.326 202.715C74.3113 202.705 74.2959 202.698 74.2799 202.694C74.2289 202.679 74.1709 202.693 74.1065 202.746C74.0881 202.762 74.0693 202.923 74.0588 202.939C74.0127 203.006 74.067 202.705 74.0238 202.764C74.0147 202.776 73.9904 202.912 73.9862 202.927C73.9199 203.157 73.9723 202.822 73.9691 202.814C73.9304 202.702 73.8219 203.04 73.7743 202.979C73.7687 202.971 73.8204 202.803 73.8026 202.792C73.6853 202.718 73.5408 202.736 73.3832 202.845C73.359 202.862 73.3447 202.993 73.3399 203.009C73.2652 203.253 73.3253 202.917 73.3217 202.904C73.2913 202.802 73.1802 203.07 73.2348 202.667C72.9885 202.756 72.8266 202.486 72.531 202.79C72.5273 202.793 72.4943 202.957 72.4871 202.964C72.4002 203.04 72.471 202.789 72.5008 202.469C72.5083 202.389 72.3879 202.755 72.3785 202.782C72.3442 202.881 72.2984 203.126 72.2903 203.145C72.2246 203.292 72.4176 202.49 72.3777 202.48C72.3762 202.482 72.3467 202.63 72.3399 202.644C72.3187 202.688 72.3221 202.627 72.2999 202.675C72.2488 202.788 72.1482 203.175 72.1665 202.94C72.1689 202.91 72.2831 202.456 72.2427 202.469C72.2265 202.475 72.1656 202.452 72.1408 202.478C72.1161 202.503 72.0935 202.652 72.0907 202.658C71.997 202.841 71.9957 202.926 71.904 203.207C71.8125 203.487 71.981 202.807 71.9895 202.728C71.9979 202.65 71.9253 202.802 71.9035 202.856C71.8817 202.909 71.8702 203.005 71.8551 203.034C71.7555 203.228 71.9135 202.691 71.9227 202.579C71.9447 202.313 71.7926 202.811 71.7455 202.852C71.7327 202.863 71.7681 202.75 71.7621 202.737C71.738 202.688 71.6797 202.841 71.6753 202.687C71.6746 202.662 71.7159 202.35 71.6418 202.568C71.6312 202.6 71.6092 202.728 71.5877 202.752C71.5553 202.789 71.5103 202.808 71.497 202.76C71.4873 202.725 71.557 202.522 71.5198 202.581C71.5032 202.608 71.4918 202.733 71.4631 202.773C71.4345 202.813 71.3894 202.796 71.3726 202.788C71.3559 202.779 71.4036 202.624 71.4048 202.613C71.4107 202.55 71.3951 202.466 71.3923 202.466C71.248 202.41 71.0452 202.642 70.9193 202.518C70.9093 202.509 70.9574 202.345 70.9563 202.342C70.934 202.263 70.8575 202.711 70.7944 202.852C70.8803 202.517 70.8494 202.574 70.8309 202.53C70.822 202.509 70.861 202.38 70.863 202.367C70.8916 202.164 70.8156 202.416 70.7993 202.468C70.7393 202.657 70.7804 202.426 70.7401 202.552C70.7001 202.678 70.6745 202.872 70.6484 202.863C70.6703 202.741 70.7669 202.431 70.7591 202.375C70.7285 202.163 70.5292 202.376 70.4605 202.386C70.3922 202.397 70.3793 202.37 70.333 202.405C70.2497 202.468 70.3304 202.24 70.3166 202.123C70.3027 202.007 70.1814 202.586 70.1454 202.708C70.1094 202.83 70.1344 202.702 70.1107 202.768C70.087 202.834 70.0817 202.922 70.0588 202.943C70.0359 202.965 70.0446 202.734 70.0706 202.603C70.1255 202.327 70.216 202.044 70.1481 202.135C70.1441 202.14 70.1151 202.293 70.1019 202.306C69.998 202.404 69.9152 202.391 69.8146 202.476C69.8007 202.488 69.7688 202.658 69.7602 202.667C69.6708 202.759 69.7629 202.481 69.8055 202.157C69.7104 202.578 69.6284 202.83 69.5794 202.821C69.5499 202.815 69.5998 202.633 69.6126 202.5C69.6165 202.46 69.565 202.58 69.5823 202.493C69.6392 202.209 69.7354 201.898 69.6556 202.012C69.6519 202.017 69.621 202.173 69.6113 202.18C69.548 202.23 69.6145 201.934 69.5707 201.885C69.5367 201.847 69.4177 202.008 69.3644 202.026C69.2497 202.498 69.2322 202.379 69.294 202.05C69.2605 202.056 69.2321 202.029 69.1915 202.067C69.1776 202.08 69.1507 202.218 69.1458 202.232C69.0694 202.458 69.1337 202.139 69.1301 202.125C69.0869 201.987 68.9722 202.213 68.9613 201.962C68.961 201.953 69.0374 201.624 68.9605 201.859C68.9553 201.875 68.9413 202.03 68.9064 202.033C68.8717 202.037 68.7668 202.197 68.7605 202.035C68.7588 201.996 68.797 201.723 68.7243 201.926C68.7145 201.953 68.6947 202.048 68.6777 202.099C68.6233 202.262 68.6971 201.929 68.6122 202.207C68.5273 202.484 68.4426 202.686 68.4451 202.481C68.445 202.475 68.4987 202.21 68.4834 202.211C68.459 202.212 68.4134 202.259 68.3908 202.252C68.3799 202.248 68.4269 202.087 68.4257 202.083C68.3731 201.974 68.2838 202.106 68.1867 202.149C68.1689 202.157 68.18 201.924 68.1088 202.093C68.0304 202.277 67.8669 203.085 67.8414 202.877C67.831 202.793 68.0423 201.77 67.8608 202.283C67.7888 202.127 67.6316 202.374 67.5739 202.162C67.5713 202.153 67.6258 201.866 67.614 201.868C67.5963 201.87 67.5551 202 67.5414 202.006C67.4826 202.034 67.4678 201.91 67.4171 201.917C67.3981 201.919 67.3708 202.057 67.348 202.059C67.3253 202.062 67.3553 201.878 67.3056 201.958C67.2679 202.019 67.1565 202.382 67.1174 202.418C67.2049 202.055 67.1833 202.058 67.1716 201.953C67.1695 201.933 67.2074 201.808 67.208 201.792C67.2112 201.724 67.1739 201.826 67.1791 201.752C67.1803 201.734 67.2103 201.61 67.213 201.589C67.2371 201.401 67.1352 201.672 67.1176 201.719C67.0503 201.898 67.0791 201.734 67.0443 201.803C67.0094 201.871 67.013 201.968 66.9822 202.007C66.9185 202.088 66.8697 202.055 66.8257 202.051C66.8084 202.048 66.8602 201.885 66.8587 201.881C66.8337 201.83 66.7566 201.998 66.8175 201.664C66.5861 202.511 66.8167 201.576 66.7256 201.735C66.7183 201.747 66.6154 202.15 66.616 202.212C66.6166 202.275 66.67 202.155 66.6683 202.252C66.6679 202.275 66.6041 202.66 66.6024 202.683C66.5888 202.87 66.7396 202.268 66.7492 202.235C66.8542 201.882 66.7903 202.298 66.7926 202.328C66.8032 202.468 66.8593 202.391 66.8717 202.492C66.88 202.557 66.7861 202.952 66.8068 202.945C66.8759 202.919 67.0301 202.373 66.9699 202.864C66.9572 202.969 66.84 203.398 66.9661 203.069C66.974 203.048 67.0819 202.746 67.0525 202.947C67.0488 202.972 67.018 203.098 67.0185 203.109C67.0224 203.182 67.0605 203.085 67.0711 203.139C67.0817 203.192 67.091 203.27 67.1267 203.234C67.1482 203.212 67.2249 202.983 67.2462 202.927C67.307 202.767 67.2631 203.043 67.325 202.846C67.3872 202.648 67.4362 202.337 67.5023 202.215C67.4238 202.542 67.3448 202.878 67.2666 203.207C67.3445 203.214 67.4436 203.126 67.5142 203.159C67.5229 203.163 67.4705 203.337 67.4787 203.346C67.5129 203.384 67.5815 203.268 67.6127 203.328C67.6369 203.376 67.6284 203.571 67.652 203.626C67.7649 203.258 67.7857 203.397 67.8316 203.372C67.8478 203.364 67.8714 203.264 67.889 203.234C67.9545 203.122 67.8567 203.448 67.8538 203.502C67.8417 203.735 68.0285 202.988 68.0735 203.019C68.076 203.02 68.0103 203.426 68.0086 203.452C67.9968 203.621 68.0472 203.315 68.0719 203.289C68.117 203.243 68.1624 203.154 68.1709 203.28C68.1733 203.317 68.1391 203.572 68.2077 203.385C68.2166 203.36 68.2474 203.228 68.2516 203.221C68.3242 203.103 68.2237 203.517 68.2126 203.663C68.2016 203.808 68.3076 203.532 68.3351 203.451C68.4065 203.243 68.3428 203.356 68.3469 203.335C68.3958 203.084 68.4115 203.133 68.4366 203.117C68.5391 202.712 68.561 202.743 68.4622 203.102C68.4514 203.141 68.4452 203.099 68.4366 203.117C68.3564 203.519 68.3745 203.578 68.4995 203.214C68.5583 203.043 68.5931 202.836 68.6237 202.923C68.6376 202.962 68.5605 203.239 68.5613 203.32C68.5632 203.505 68.6848 203.258 68.72 203.311C68.7328 203.329 68.6793 203.478 68.6867 203.497C68.7063 203.545 68.7608 203.437 68.777 203.504C68.7784 203.51 68.7324 203.668 68.7413 203.672C68.8086 203.709 68.8958 203.621 68.9701 203.637C69.0055 203.644 69.0497 203.748 69.0911 203.74C69.1635 203.726 69.2981 203.512 69.3404 203.583C69.3678 203.628 69.3205 203.786 69.3092 203.899C69.2872 204.117 69.4328 203.752 69.4542 203.695C69.4549 203.693 69.4333 203.647 69.47 203.569C69.5216 203.4 69.4541 203.694 69.4542 203.695C69.4682 203.658 69.5386 203.637 69.5432 203.67C69.5457 203.689 69.5048 203.839 69.5068 203.846C69.5567 204.002 69.6308 204.061 69.7311 204.011C69.7334 204.008 69.7727 203.838 69.7774 203.834C69.8442 203.77 69.8254 203.985 69.8353 204.118C69.8453 204.251 69.8871 204.218 69.982 203.932C70.003 203.976 70.0776 203.858 70.1221 203.786C70.1664 203.714 70.0892 204.045 70.0898 204.053C70.1076 204.278 70.1933 204.099 70.271 204.087C70.3089 204.081 70.3647 204.145 70.3925 204.19C70.4143 204.226 70.4505 204.153 70.4649 204.209C70.4669 204.216 70.4275 204.363 70.4272 204.369C70.4139 204.552 70.4872 204.189 70.5089 204.126C70.5881 203.898 70.6325 203.777 70.6441 203.896C70.6469 203.923 70.5468 204.447 70.5555 204.482C70.567 204.525 70.6043 204.338 70.6152 204.388C70.6161 204.392 70.5879 204.506 70.6026 204.505C70.6696 204.498 70.7557 204.448 70.8179 204.475C70.8265 204.478 70.7712 204.657 70.7829 204.665C70.8377 204.701 70.9059 204.711 70.9857 204.64C71.0054 204.622 71.027 204.492 71.0392 204.455C71.1137 204.231 71.061 204.57 71.064 204.578C71.1323 204.763 71.2895 204.483 71.3643 204.652C71.3683 204.662 71.3301 205.029 71.4236 204.728C71.4299 204.708 71.5248 204.401 71.4919 204.619C71.4899 204.632 71.4388 204.79 71.4649 204.779C71.4911 204.768 71.5007 204.884 71.5734 204.714C71.5965 204.661 71.6935 204.354 71.6636 204.61C71.6613 204.628 71.5732 205.201 71.6807 204.816C71.6983 204.753 71.7926 204.342 71.7772 204.561C71.7741 204.603 71.7406 204.692 71.7443 204.753C71.7496 204.847 71.8117 204.746 71.8015 204.936C71.7997 204.97 71.7588 205.255 71.8279 205.048C71.8388 205.015 71.8651 204.877 71.879 204.864C71.945 204.802 71.9748 204.905 72.0473 204.822C72.0728 204.793 72.1153 204.569 72.1475 204.514C72.1798 204.459 72.2298 204.41 72.2254 204.516C72.221 204.622 72.1183 204.971 72.1404 205.005C72.2394 205.158 72.4123 204.979 72.5447 204.977C72.5643 204.977 72.5202 205.1 72.5477 205.108C72.6481 205.141 72.7995 205.299 72.9476 205.049C73.0666 204.849 73.0123 204.665 73.0861 204.589C73.1214 204.553 73.0602 204.971 73.0637 204.986C73.0966 205.131 73.1806 204.958 73.2244 205.026C73.2335 205.04 73.1865 205.205 73.1947 205.215C73.2223 205.251 73.2734 205.184 73.3034 205.204C73.3167 205.214 73.2871 205.341 73.3027 205.334C73.3396 205.319 73.3793 205.271 73.4352 205.158C73.4403 205.147 73.4543 204.984 73.479 204.983C73.5195 204.982 73.5917 204.874 73.6106 205.005C73.6161 205.044 73.5573 205.337 73.6263 205.141C73.6409 205.1 73.7043 204.747 73.6762 205.057C73.6715 205.109 73.6456 205.529 73.7256 205.271C73.7467 205.203 73.8219 204.919 73.8286 204.967C73.8292 204.973 73.8 205.089 73.7982 205.133C73.7979 205.14 73.7984 205.146 73.7998 205.148C73.8368 205.209 73.889 205.201 73.9269 205.26C73.937 205.276 73.8867 205.435 73.9028 205.454C73.9486 205.505 74.0222 205.476 74.0833 205.435C74.1062 205.419 74.1181 205.282 74.1222 205.267C74.1891 205.032 74.1422 205.357 74.1462 205.378C74.1718 205.499 74.2334 205.353 74.2694 205.401C74.2793 205.414 74.2431 205.567 74.243 205.581C74.2432 205.72 74.2749 205.44 74.2958 205.412C74.3546 205.333 74.3989 205.354 74.4397 205.381C74.4545 205.392 74.4051 205.567 74.4187 205.575C74.4982 205.62 74.5911 205.618 74.6905 205.534C74.7095 205.517 74.7224 205.378 74.7309 205.347C74.7898 205.13 74.773 205.436 74.7759 205.466C74.7889 205.602 74.8221 205.482 74.8493 205.51C74.9803 205.648 75.1785 205.595 75.3272 205.565C75.5208 205.527 75.6808 205.414 75.8515 205.47C75.8625 205.473 75.8283 205.657 75.8375 205.662C75.9567 205.722 76.0874 205.664 76.2057 205.731C76.2153 205.736 76.1812 205.91 76.1963 205.924C76.2277 205.955 76.2706 205.95 76.3109 205.897C76.3304 205.872 76.3243 205.719 76.3435 205.697C76.3881 205.645 76.4303 205.637 76.4667 205.669C76.482 205.683 76.4383 205.86 76.4597 205.864C76.6057 205.897 76.7468 205.942 76.9101 205.724C76.9214 205.709 76.9663 205.345 76.9796 205.417C76.971 205.518 76.959 205.637 76.9489 205.745C77.0362 205.78 77.1235 205.778 77.2057 205.765C77.3074 205.749 77.4089 205.718 77.5036 205.721C77.5109 205.721 77.4709 205.912 77.4846 205.913C77.5635 205.922 77.624 205.986 77.7326 205.81C77.7434 205.793 77.8014 205.456 77.8152 205.511C77.8176 205.521 77.8434 205.572 77.8372 205.647C77.8362 205.658 77.7992 205.813 77.8087 205.82C77.864 205.856 77.9312 205.833 78.016 205.753C78.0299 205.74 78.0589 205.573 78.0694 205.562C78.1438 205.487 78.1715 205.628 78.2683 205.494C78.334 205.404 78.3955 205.117 78.4919 204.843C78.5055 204.805 78.5327 204.805 78.5778 204.643C78.6911 204.236 78.7988 203.786 78.9211 203.352C78.9475 203.259 78.955 203.369 78.9954 203.137C78.9981 203.121 78.9929 203.039 79.0071 202.961C79.0169 202.907 79.0694 202.744 79.0785 202.673C79.0875 202.603 79.0402 202.738 79.0459 202.654C79.0516 202.569 79.1091 202.383 79.082 202.352ZM70.3203 203.464C70.3821 203.311 70.2436 203.893 70.2526 203.748C70.2532 203.741 70.3172 203.472 70.3203 203.464ZM67.5502 202.688C67.6429 202.439 67.5712 202.821 67.5017 203.014C67.4322 203.206 67.522 202.763 67.5502 202.688ZM67.2831 202.424C67.3676 202.231 67.1719 203.056 67.175 202.88C67.1751 202.871 67.2782 202.436 67.2831 202.424ZM78.4135 204.737C78.4158 204.73 78.4357 204.727 78.4341 204.735C78.3951 204.921 78.3561 204.926 78.4135 204.737ZM67.0223 202.145C67.0604 202.036 67.0605 202.172 67.0132 202.308C66.9751 202.417 66.9749 202.28 67.0223 202.145ZM71.6767 203.136C71.6791 203.127 71.6943 203.123 71.6823 203.172C71.6437 203.329 71.6358 203.28 71.6767 203.136ZM66.4964 202.007C66.5825 201.995 66.7953 201.326 66.6912 201.382C66.6724 201.392 66.6719 201.607 66.6373 201.664C66.5741 201.767 66.6539 201.333 66.5613 201.553C66.5444 201.594 66.4912 202.009 66.4963 202.008C66.4964 202.008 66.4964 202.007 66.4964 202.007ZM70.504 202.77C70.5064 202.762 70.5266 202.759 70.5252 202.767C70.4901 202.954 70.4494 202.96 70.504 202.77ZM72.5435 202.96C72.5483 202.944 72.5946 202.939 72.5924 202.954C72.5447 203.262 72.4508 203.274 72.5435 202.96ZM69.3606 202.039C69.3861 201.848 69.3675 201.82 69.2942 202.05C69.3172 202.042 69.3378 202.045 69.3606 202.039Z" fill="white"/>
<path d="M81.7636 205.6C81.8391 205.526 81.8214 205.39 81.777 205.273C81.7633 205.237 81.6574 205.221 81.6433 205.195C81.6159 205.143 81.677 205.122 81.6426 205.067C81.6307 205.049 81.4652 205.016 81.4565 204.997C81.4097 204.898 81.4726 204.841 81.4641 204.751C81.4187 204.317 81.4902 203.909 81.5537 203.49C81.5752 203.351 81.4859 203.143 81.5966 203.028C81.6095 203.015 81.7454 203.073 81.7579 203.074C81.9498 203.089 81.6634 203.006 81.6368 202.963C81.5323 202.788 81.5667 202.649 81.6621 202.549C81.7032 202.506 81.9616 202.654 81.8244 202.549C81.8152 202.541 81.6631 202.502 81.6521 202.483C81.6274 202.44 81.6745 202.39 81.6713 202.362C81.6644 202.307 81.6686 202.3 81.6825 202.255C81.7007 202.192 81.6517 202.097 81.7081 202.043C81.7205 202.032 81.8654 202.104 81.899 202.091C81.9324 202.078 81.9403 202.014 81.9116 201.982C81.883 201.949 81.761 201.916 81.735 201.903C81.5149 201.793 81.8571 201.839 81.8681 201.833C82.0584 201.721 81.9242 201.523 81.9775 201.373C82.0184 201.259 82.12 201.162 82.1502 201.049C82.1845 200.918 82.1407 200.78 82.1987 200.66C82.2046 200.647 82.3773 200.725 82.3849 200.71C82.4649 200.548 82.5053 200.37 82.4441 200.158C82.4379 200.137 82.2738 200.104 82.2582 200.08C82.1668 199.928 81.9139 199.659 82.6172 199.832C82.6154 199.752 82.6177 199.656 82.502 199.546C82.4276 199.475 82.2434 199.455 82.3334 199.43C82.3536 199.425 82.4978 199.491 82.5167 199.479C82.596 199.426 82.575 199.33 82.6763 199.286C82.6973 199.278 82.8298 199.328 82.8553 199.332C83.0623 199.365 82.759 199.197 82.7398 199.177C82.5973 199.022 82.6905 198.975 82.7162 198.886C82.7221 198.865 82.8938 198.951 82.9059 198.933C82.9664 198.841 82.9872 198.729 82.9419 198.601C82.9314 198.572 82.7709 198.54 82.7581 198.524C82.7028 198.453 82.996 198.542 82.9486 198.476C82.939 198.462 82.8059 198.422 82.792 198.416C82.5748 198.312 82.9036 198.397 82.913 198.393C83.0397 198.338 82.724 198.167 82.8005 198.097C82.8099 198.089 82.9685 198.168 82.9848 198.142C83.0945 197.969 83.118 197.748 83.0476 197.517C83.037 197.48 82.9049 197.459 82.8901 197.452C82.6594 197.342 82.9886 197.43 83.004 197.424C83.1169 197.378 82.8701 197.216 83.2714 197.294C83.2445 196.93 83.567 196.679 83.3257 196.249C83.323 196.244 83.1614 196.199 83.1567 196.189C83.0991 196.062 83.3405 196.162 83.6644 196.196C83.7458 196.205 83.3965 196.035 83.3711 196.022C83.2776 195.974 83.0351 195.913 83.0178 195.902C82.9797 195.876 83.0138 195.877 83.0829 195.892C83.2565 195.944 83.6585 196.088 83.6746 196.047C83.6741 196.044 83.5294 195.998 83.5171 195.988C83.4787 195.956 83.5408 195.962 83.4976 195.929C83.3977 195.852 83.0281 195.696 83.2657 195.728C83.2965 195.732 83.7294 195.909 83.7286 195.849C83.728 195.825 83.7705 195.737 83.752 195.701C83.7335 195.664 83.5861 195.628 83.5807 195.624C83.4212 195.483 83.334 195.48 83.0719 195.339C82.8109 195.199 83.4616 195.46 83.54 195.474C83.6183 195.488 83.4842 195.378 83.4357 195.345C83.3871 195.313 83.2917 195.294 83.2658 195.271C83.0968 195.121 83.603 195.364 83.7161 195.379C83.9839 195.417 83.5158 195.186 83.4884 195.116C83.481 195.097 83.587 195.151 83.6022 195.142C83.6609 195.107 83.5211 195.019 83.6816 195.016C83.7078 195.016 84.0171 195.083 83.8145 194.97C83.7853 194.954 83.6599 194.919 83.641 194.888C83.6126 194.84 83.6082 194.773 83.6618 194.755C83.7014 194.741 83.8893 194.847 83.8397 194.791C83.8176 194.767 83.691 194.748 83.6591 194.705C83.6271 194.662 83.6582 194.597 83.6721 194.573C83.6861 194.549 83.8317 194.622 83.8427 194.623C83.9057 194.634 83.9976 194.613 83.9991 194.608C84.1019 194.397 83.9256 194.097 84.0923 193.917C84.1052 193.903 84.2601 193.976 84.2637 193.974C84.3525 193.943 83.9118 193.824 83.7855 193.729C84.1064 193.86 84.057 193.814 84.1081 193.788C84.1329 193.775 84.2539 193.834 84.2674 193.837C84.4686 193.882 84.2309 193.767 84.1827 193.742C84.0054 193.652 84.2317 193.715 84.1132 193.655C83.9957 193.594 83.8026 193.554 83.8198 193.516C83.9396 193.55 84.2308 193.696 84.2911 193.685C84.5194 193.646 84.3622 193.348 84.3719 193.25C84.3817 193.151 84.414 193.131 84.3922 193.063C84.3527 192.94 84.5639 193.061 84.689 193.043C84.8141 193.024 84.2511 192.839 84.1356 192.785C84.0201 192.731 84.1457 192.77 84.0844 192.734C84.0231 192.699 83.9339 192.69 83.9187 192.656C83.9034 192.623 84.1397 192.639 84.2671 192.678C84.537 192.761 84.8017 192.897 84.7291 192.796C84.7248 192.79 84.575 192.746 84.5657 192.727C84.4967 192.573 84.534 192.455 84.4774 192.306C84.4693 192.285 84.3025 192.237 84.296 192.225C84.2279 192.093 84.4879 192.23 84.8102 192.295C84.4027 192.152 84.1667 192.03 84.191 191.959C84.2055 191.917 84.3788 191.991 84.5133 192.011C84.5539 192.017 84.4443 191.941 84.5292 191.967C84.8068 192.052 85.0993 192.195 85.0061 192.077C85.0015 192.072 84.8494 192.026 84.8446 192.011C84.8128 191.918 85.0994 192.016 85.1628 191.952C85.2127 191.902 85.0801 191.73 85.0779 191.65C84.6231 191.481 84.7514 191.455 85.0745 191.546C85.0782 191.497 85.1141 191.455 85.0868 191.396C85.0776 191.375 84.9423 191.336 84.9288 191.329C84.7163 191.217 85.0285 191.311 85.0441 191.306C85.1993 191.244 84.9992 191.074 85.2622 191.057C85.2716 191.057 85.5901 191.167 85.3689 191.056C85.3536 191.048 85.1976 191.028 85.2037 190.977C85.2099 190.926 85.0724 190.776 85.2429 190.764C85.284 190.761 85.5557 190.814 85.3664 190.709C85.3406 190.695 85.2481 190.666 85.1997 190.642C85.0457 190.564 85.37 190.669 85.1063 190.547C84.8426 190.425 84.6561 190.304 84.8674 190.306C84.8736 190.306 85.1333 190.381 85.1367 190.359C85.1419 190.323 85.1057 190.258 85.1195 190.224C85.1263 190.208 85.2805 190.274 85.2844 190.272C85.3663 190.221 85.3497 190.149 85.3218 190.068C85.3061 190.019 85.2854 189.971 85.2769 189.92C85.2721 189.894 85.5103 189.898 85.351 189.802C85.1766 189.696 84.3755 189.502 84.5957 189.453C84.6838 189.433 85.6991 189.683 85.2058 189.447C85.3804 189.334 85.1592 189.111 85.3904 189.015C85.4007 189.011 85.6852 189.078 85.6865 189.061C85.6879 189.035 85.5624 188.98 85.5594 188.961C85.5434 188.877 85.6755 188.848 85.6811 188.775C85.6836 188.747 85.5472 188.711 85.5503 188.677C85.5537 188.643 85.736 188.683 85.6659 188.612C85.6124 188.559 85.2664 188.4 85.2405 188.342C85.593 188.466 85.5961 188.435 85.7075 188.418C85.729 188.414 85.8473 188.47 85.8638 188.471C85.9336 188.475 85.8387 188.421 85.9137 188.429C85.9317 188.431 86.0514 188.475 86.0729 188.479C86.2597 188.516 86.0092 188.367 85.966 188.34C85.8012 188.24 85.9619 188.285 85.9018 188.233C85.842 188.181 85.7403 188.184 85.7096 188.138C85.6463 188.043 85.6973 187.972 85.7177 187.908C85.7265 187.883 85.8767 187.965 85.8816 187.963C85.9422 187.93 85.7976 187.808 86.121 187.915C85.3313 187.53 86.2117 187.92 86.0819 187.779C86.0713 187.768 85.6958 187.591 85.6301 187.589C85.5644 187.586 85.6685 187.672 85.568 187.665C85.5445 187.663 85.1688 187.552 85.1445 187.549C84.955 187.524 85.5234 187.772 85.5538 187.788C85.8814 187.957 85.4739 187.846 85.4412 187.849C85.2926 187.862 85.3519 187.948 85.2429 187.967C85.1723 187.979 84.7923 187.835 84.7928 187.869C84.7941 187.98 85.3142 188.207 84.8206 188.126C84.7153 188.109 84.3045 187.939 84.608 188.127C84.627 188.139 84.9101 188.296 84.7093 188.258C84.684 188.253 84.5619 188.21 84.5499 188.211C84.472 188.221 84.5618 188.277 84.5029 188.297C84.444 188.316 84.3595 188.336 84.3875 188.391C84.4041 188.424 84.6227 188.531 84.675 188.561C84.8259 188.646 84.5495 188.594 84.7389 188.678C84.9294 188.761 85.2408 188.82 85.3516 188.912C85.0309 188.811 84.701 188.71 84.378 188.609C84.3515 188.73 84.4199 188.876 84.3706 188.986C84.3642 188.999 84.1959 188.932 84.1845 188.945C84.1374 189 84.2437 189.093 84.1747 189.143C84.1207 189.182 83.921 189.18 83.8592 189.217C84.2173 189.362 84.069 189.4 84.0857 189.464C84.0913 189.487 84.1898 189.516 84.2175 189.54C84.3198 189.628 84.0029 189.502 83.9475 189.5C83.7369 189.492 84.2946 189.678 84.3902 189.766L84.3976 189.744C84.409 189.755 84.4135 189.765 84.4088 189.772C84.4068 189.776 84.0035 189.686 83.9772 189.683C83.8059 189.668 84.1095 189.738 84.1292 189.773C84.1651 189.838 84.246 189.903 84.1135 189.917C84.0743 189.921 83.82 189.873 83.9953 189.97C84.0182 189.983 84.1467 190.026 84.153 190.032C84.2566 190.135 83.8549 189.993 83.7071 189.978C83.5593 189.962 83.8174 190.114 83.8933 190.153C84.0895 190.255 83.9891 190.164 84.0098 190.17C84.2571 190.239 84.2019 190.262 84.2118 190.298C84.6031 190.445 84.5647 190.477 84.2204 190.336C84.1828 190.32 84.2276 190.311 84.2118 190.298C83.8171 190.185 83.7518 190.211 84.0938 190.391C84.2541 190.475 84.4588 190.525 84.3612 190.569C84.317 190.589 84.0514 190.478 83.9674 190.479C83.776 190.482 83.9974 190.657 83.9332 190.709C83.91 190.728 83.7709 190.65 83.7499 190.661C83.6939 190.689 83.7905 190.769 83.7175 190.791C83.7107 190.793 83.5598 190.726 83.5527 190.739C83.4968 190.835 83.5623 190.961 83.5248 191.07C83.5065 191.122 83.3867 191.182 83.3835 191.243C83.3772 191.346 83.5577 191.546 83.473 191.605C83.4184 191.644 83.2687 191.574 83.1552 191.556C82.9354 191.522 83.271 191.737 83.3234 191.768C83.3252 191.769 83.3785 191.739 83.4485 191.793C83.608 191.869 83.3243 191.768 83.3234 191.768C83.3573 191.789 83.3581 191.892 83.3219 191.898C83.3021 191.902 83.1583 191.841 83.1507 191.843C82.9745 191.913 82.8915 192.018 82.9131 192.166C82.9152 192.169 83.0795 192.228 83.0825 192.235C83.1279 192.333 82.911 192.302 82.7704 192.314C82.6298 192.326 82.6516 192.388 82.9182 192.53C82.8661 192.56 82.9655 192.67 83.0265 192.736C83.0876 192.801 82.7685 192.683 82.761 192.684C82.522 192.705 82.6812 192.833 82.6697 192.947C82.6646 193.001 82.581 193.081 82.5258 193.12C82.4816 193.151 82.546 193.206 82.4836 193.226C82.4752 193.228 82.3361 193.168 82.33 193.168C82.1444 193.145 82.4976 193.258 82.5558 193.291C82.7674 193.41 82.8791 193.477 82.7521 193.491C82.723 193.495 82.2117 193.339 82.1737 193.351C82.1251 193.367 82.3076 193.424 82.2522 193.439C82.2476 193.441 82.138 193.397 82.1352 193.419C82.1209 193.518 82.1467 193.641 82.0991 193.732C82.093 193.744 81.9251 193.66 81.9134 193.677C81.859 193.756 81.8282 193.855 81.8768 193.972C81.8893 194.001 82.0165 194.035 82.051 194.053C82.2595 194.166 81.9254 194.083 81.9168 194.087C81.7034 194.183 81.9456 194.415 81.7468 194.521C81.7354 194.527 81.3678 194.462 81.6494 194.605C81.6682 194.614 81.9567 194.759 81.7416 194.706C81.7281 194.703 81.5808 194.625 81.5842 194.663C81.5876 194.702 81.4646 194.714 81.6173 194.823C81.6654 194.858 81.952 195.006 81.6974 194.956C81.6797 194.952 81.1154 194.81 81.4789 194.975C81.5388 195.002 81.9343 195.149 81.7132 195.122C81.6703 195.117 81.5891 195.066 81.5246 195.07C81.4253 195.076 81.5114 195.167 81.3177 195.147C81.2852 195.144 81.0299 195.083 81.1694 195.168L81.1376 195.258C81.1451 195.262 81.1538 195.267 81.1636 195.271C81.1945 195.286 81.3312 195.322 81.3413 195.342C81.3898 195.437 81.2759 195.482 81.3451 195.584C81.3693 195.62 81.5899 195.678 81.6393 195.723C81.6885 195.769 81.7268 195.84 81.6189 195.835C81.5109 195.831 81.176 195.687 81.1349 195.719C80.9549 195.863 81.0993 196.105 81.0683 196.297C81.0638 196.325 80.9479 196.262 80.9324 196.301C80.8751 196.443 80.6759 196.655 80.8953 196.869C81.0711 197.04 81.2731 196.967 81.3326 197.072C81.3608 197.123 80.9474 197.028 80.9319 197.033C80.7741 197.079 80.9306 197.2 80.8496 197.26C80.8329 197.273 80.6762 197.202 80.6637 197.213C80.6197 197.251 80.6753 197.325 80.6469 197.365C80.6338 197.383 80.5112 197.338 80.5144 197.36C80.5205 197.412 80.5591 197.47 80.6602 197.553C80.6694 197.56 80.8324 197.586 80.8268 197.621C80.8174 197.678 80.9092 197.783 80.7703 197.804C80.7286 197.81 80.446 197.714 80.6276 197.82C80.6655 197.842 81.0084 197.947 80.6995 197.894C80.6481 197.885 80.2263 197.827 80.4683 197.952C80.532 197.985 80.8009 198.105 80.7498 198.112C80.7418 198.113 80.5941 198.049 80.5731 198.062C80.5017 198.109 80.4952 198.181 80.4247 198.232C80.4056 198.245 80.2577 198.165 80.2343 198.186C80.1698 198.245 80.1789 198.349 80.2039 198.435C80.2135 198.467 80.3496 198.494 80.3631 198.501C80.5829 198.61 80.2658 198.522 80.2443 198.526C80.114 198.552 80.2433 198.65 80.1847 198.695C80.1689 198.707 80.0248 198.645 80.0106 198.643C79.8703 198.631 80.1445 198.699 80.1666 198.73C80.2294 198.817 80.1953 198.877 80.1555 198.931C80.1408 198.95 79.9777 198.866 79.9665 198.884C79.8964 198.99 79.8725 199.112 79.927 199.26C79.9376 199.288 80.0744 199.321 80.103 199.335C80.3033 199.44 79.9999 199.384 79.9689 199.385C79.8275 199.388 79.938 199.446 79.902 199.48C79.7227 199.645 79.7128 199.921 79.694 200.127C79.6678 200.398 79.7254 200.635 79.6096 200.86C79.6024 200.875 79.4323 200.798 79.4238 200.809C79.3222 200.963 79.3322 201.153 79.2227 201.303C79.214 201.315 79.0546 201.237 79.0351 201.255C78.9936 201.292 78.9821 201.354 79.019 201.418C79.0367 201.45 79.19 201.47 79.2049 201.501C79.2398 201.572 79.2325 201.631 79.1863 201.677C79.1663 201.697 79.0085 201.602 78.9959 201.631C78.9071 201.831 78.8079 202.02 78.9553 202.308C78.9655 202.327 79.3074 202.46 79.2306 202.467C79.1337 202.436 79.0207 202.396 78.9177 202.362C78.7579 202.644 78.7752 202.985 78.6912 203.298C78.6876 203.312 78.5109 203.228 78.503 203.253C78.4572 203.399 78.3588 203.526 78.4935 203.737C78.5067 203.758 78.8343 203.855 78.7712 203.882C78.7596 203.888 78.6947 203.941 78.6186 203.936C78.6072 203.935 78.4591 203.874 78.4478 203.894C78.3853 204.011 78.3782 204.156 78.4324 204.313C78.4415 204.339 78.6107 204.366 78.6186 204.384C78.6741 204.512 78.5161 204.592 78.6358 204.734C78.7163 204.831 79.0059 204.885 79.2742 204.998C79.3121 205.014 79.3071 205.056 79.4686 205.103C79.8745 205.221 80.3256 205.327 80.7577 205.455C80.8507 205.482 80.7368 205.502 80.9706 205.536C80.9863 205.539 81.0709 205.525 81.1499 205.538C81.2045 205.547 81.3662 205.603 81.4373 205.611C81.5083 205.618 81.3741 205.566 81.4593 205.568C81.5456 205.571 81.7301 205.633 81.7636 205.6ZM83.2989 193.028C83.4382 193.121 82.8785 192.91 83.026 192.925C83.0338 192.926 83.2921 193.024 83.2989 193.028ZM84.8512 189.009C85.089 189.133 84.7088 189.05 84.5242 188.957C84.3399 188.864 84.7793 188.971 84.8512 189.009ZM85.1885 188.592C85.3677 188.712 84.5603 188.452 84.7429 188.447C84.7533 188.446 85.1781 188.585 85.1885 188.592ZM79.3989 204.861C79.4064 204.864 79.4056 204.895 79.3979 204.893C79.2109 204.856 79.2128 204.794 79.3989 204.861ZM85.5539 188.196C85.6548 188.253 85.5133 188.253 85.3875 188.182C85.2864 188.125 85.4285 188.124 85.5539 188.196ZM83.2165 195.009C83.2246 195.013 83.2245 195.035 83.1777 195.017C83.0267 194.957 83.08 194.946 83.2165 195.009ZM85.8924 187.428C85.8675 187.556 86.4767 187.91 86.4576 187.762C86.4545 187.735 86.2338 187.713 86.189 187.66C86.1084 187.56 86.5212 187.716 86.3325 187.565C86.2982 187.536 85.8925 187.42 85.8914 187.428C85.8918 187.428 85.8921 187.428 85.8924 187.428ZM83.9615 193.307C83.9686 193.311 83.9651 193.34 83.9576 193.338C83.7748 193.284 83.7817 193.224 83.9615 193.307ZM83.1462 196.272C83.1617 196.278 83.1559 196.347 83.1405 196.344C82.8346 196.28 82.8454 196.142 83.1462 196.272ZM85.0661 191.644C85.2562 191.682 85.2906 191.654 85.0746 191.546C85.0756 191.58 85.0663 191.611 85.0661 191.644Z" fill="white"/>
</svg>
