<svg width="1353" height="1329" viewBox="0 0 1353 1329" fill="none" xmlns="http://www.w3.org/2000/svg">
<path d="M902.982 20.5937C907.855 19.5158 914.962 20.0353 920.772 19.2116C944.977 15.8087 954.133 15.5472 976.081 12.8606C1008.61 8.81406 1104.55 -7.29609 1106.16 3.88162C1106.16 3.8819 1106.16 3.88218 1106.16 3.88246C1106.17 3.99176 1106.18 4.10368 1106.18 4.21826C1106.14 6.39104 1098.29 9.89325 1097.43 12.4704C1096.56 15.0496 1099.74 30.4243 1088.23 32.9833C1071.57 36.5645 1030.63 38.5162 1021.7 40.0339C1015.56 41.0689 1008.25 43.5983 1000.43 45.0259C975.297 49.6255 961.91 50.6123 939.778 57.959C930.349 57.3597 920.942 56.77 911.552 56.1927C899.826 59.0027 881.427 59.2495 874.261 60.5764C868.374 61.6634 865.16 63.8271 859.039 64.9183C852.126 66.1605 841.274 66.2084 828.764 68.619C808.275 72.5744 805.38 77.3791 793.161 80.1025C780.516 82.9265 760.278 84.3296 744.351 88.9272C742.409 89.7744 740.49 90.6188 738.526 91.4744C740.193 92.2152 741.848 92.9594 743.491 93.7069C735.415 95.7737 731.55 94.351 724.022 95.8199C715.239 97.5398 711.172 100.458 705.243 101.684C703.181 102.111 700.758 102.316 698.189 102.521C694.651 102.811 690.861 103.098 687.297 103.932C678.147 106.071 680.744 107.919 675.894 109.446C673.975 109.963 638.257 119.635 636.28 120.233C620.937 124.123 618.844 121.351 606.534 124.284C572.468 132.47 538.845 145.398 509.023 157.103C495.655 162.331 481.697 167.456 468.312 172.395C486.105 156.164 437.342 169.42 459.653 174.091C457.44 174.738 455.356 175.46 453.394 176.228C441.567 180.875 433.342 187.29 421.484 192.324C412.512 196.165 405.665 197.462 393.307 203.862C371.253 215.204 351.334 233.303 340.571 229.421C333.01 234.91 325.736 239.937 319.362 244.752C305.503 255.188 294.754 263.901 292.688 272.57C287.153 277.533 269.477 285.973 262.86 291.092C255.908 295.151 212.471 336.949 206.95 345.351C201.607 351.76 193.283 362.629 188.437 370.31C187.528 371.733 186.724 373.038 186.063 374.177C180.66 383.49 183.352 394.283 164.639 404.538C153.121 423.366 148.678 429.785 137.094 446.655C135.014 449.716 133.548 449.331 132.443 451.192C130.171 455.027 127.286 462.11 123.543 469.093C117.395 480.568 111.312 485.775 116.13 486.658C112.862 494.601 109.761 502.582 106.848 510.6C104.757 512.908 102.681 515.237 100.621 517.587C99.6392 522.149 98.7203 526.706 97.8664 531.258C93.5365 523.63 85.3499 554.938 92.8323 546.658C86.6705 559.265 81.0392 572.134 76.0139 585.295C75.1374 587.612 74.267 589.914 73.4027 592.201C66.578 587.828 62.4876 627.634 67.4626 625.569C66.9444 627.425 66.4353 629.255 65.9151 631.133C59.4949 646.875 57.1266 662.215 50.9448 681.755C44.8468 701.323 44.671 699.273 39.8324 704.588C39.0038 709.334 38.2163 714.067 37.4699 718.833C42.7129 745.129 25.2644 738.261 29.2357 781.421C27.0927 785.533 25.8722 791.839 25.6989 799.056C25.3461 815.293 27.9231 836.214 29.8655 851.681C30.1946 854.298 31.3836 854.321 31.9093 857.807C33.1298 866.36 32.9376 888.266 36.7532 887.264C36.1634 894.852 35.6587 902.433 35.2912 910.009C36.5869 916.044 37.9682 922.015 39.4764 927.906C40.6576 927.714 41.8388 927.522 43.0201 927.331C40.4824 939.937 45.7908 958.082 47.8368 966.384C48.1755 967.875 47.0531 968.79 47.8741 972.489C47.9945 972.996 48.153 973.557 48.3613 974.185C50.3488 980.495 56.4484 991.417 60.182 998.534C63.357 1000.29 66.5346 1001.93 69.7397 1003.52C78.3044 1014.69 77.6214 1021.47 82.5995 1028.38C83.2612 1029.81 102.106 1050.39 103.465 1051.19C104.667 1052.26 105.731 1053.09 106.725 1053.8C113.437 1058.18 115.651 1057.6 139.287 1077.25C144.211 1081.23 147.518 1085.41 152.195 1088.79C160.333 1094.98 188.215 1108.69 191.859 1107.2C199.27 1115.48 222.259 1127.49 234.137 1133.95C236.117 1135.05 237.788 1136.01 238.979 1136.78C241.486 1138.41 240.987 1140.87 248.976 1145.3C255.432 1148.95 273.562 1155.03 282.095 1158.83C291.176 1162.94 293.758 1166.05 297.894 1167.81C301.821 1169.47 306.028 1169.34 311.441 1171.34C328.343 1177.6 343.099 1185.23 356.753 1189.64C371.856 1194.51 386.345 1196 400.118 1197.67C404.379 1198.18 408.718 1198.74 412.818 1199.38C416.914 1200.87 420.664 1203 425.066 1204.24C478.987 1219.52 540.309 1235.94 594.949 1249.85C620.267 1256.46 682.496 1276.62 667.801 1262.35C672.156 1262.37 688.698 1266.45 706.128 1270.73C725.8 1275.59 746.633 1280.77 753.137 1281.98C765.46 1284.29 775.512 1284.05 785.128 1285.56C814.132 1289.85 834.68 1294.61 868.886 1292.86C874.156 1292.52 879.564 1291.32 884.09 1290.27C887.309 1289.55 890.157 1288.95 892.324 1288.77C898.837 1288.24 906.062 1289.77 914.506 1288.94C934.681 1287.18 971.476 1280.06 990.036 1275.52C993.441 1274.74 995.118 1276.33 1000.12 1275.62C1019.69 1272.94 1040.25 1265.03 1034.43 1260.53C1058.88 1255.34 1078.29 1242.43 1097.21 1230.49C1098.72 1229.54 1100.27 1228.55 1101.85 1227.51C1145.36 1201.3 1209.31 1146.37 1227.91 1110.51C1230.36 1106.39 1232.18 1102.95 1233.7 1099.9C1240.81 1085.57 1242.89 1080.13 1260.79 1052.95C1265.59 1045.54 1270.42 1038.2 1275.74 1029.05C1288.19 1007.79 1301.29 988.181 1300.23 968.721C1300.75 967.2 1301.25 965.692 1301.72 964.195C1309.53 939.2 1313.21 919.286 1320.75 901.013C1319.82 898.461 1318.86 895.913 1317.87 893.411C1318.22 890.088 1318.53 886.77 1318.78 883.465C1320.08 882.538 1321.38 881.581 1322.67 880.636C1325.08 856.503 1318.52 826.05 1316.07 805.621C1315.63 801.678 1315.08 796.965 1314.4 791.635C1309.14 750.049 1300.13 675.021 1296.8 645.247C1294.86 627.338 1292.11 626.818 1295.72 615.789C1294.7 611.9 1293.66 607.961 1292.63 604.094C1291.05 601.806 1289.46 599.514 1287.88 597.264C1285.13 581.616 1282.76 563.94 1279.84 547.629C1278.48 540.074 1277.15 532.912 1275.72 526.185C1267.35 486.805 1251.92 429.51 1233.72 398.537C1229.45 390.522 1224.4 379.909 1218.12 373.262C1217.12 372.184 1216.14 371.239 1215.18 370.393C1207.16 363.29 1201.84 362.362 1190.28 351.658C1168.28 330.515 1125.23 292.396 1099.61 278.299C1092.12 273.962 1087.9 273.309 1082.62 270.564C1080.32 269.374 1078.06 268.223 1075.81 267.088C1056.2 257.235 1039.24 248.811 1018.83 241.869C996.952 228.064 1000.7 224.679 994.959 217.057C990.756 211.258 975.026 197.226 972.547 193.518C971.032 190.757 979.318 189.7 977.101 186.518C1011.2 194.071 1022.18 202.536 1044.63 216.621C1060.2 223.903 1075.38 231.58 1090.47 239.555C1118.3 254.271 1144.82 271.342 1169.81 290.36C1172.49 294.178 1175.09 297.991 1177.65 301.83C1177.65 301.832 1177.65 301.835 1177.65 301.837C1191.05 314.734 1199.22 317.288 1207.24 323.387C1216.63 330.593 1226.74 339.21 1237.1 349.016C1285.99 392.392 1299.23 474.064 1312.53 540.693C1322.81 594.281 1329.1 645.347 1334.67 684.618C1337.46 704.263 1347.2 763.12 1349.18 786.819C1349.45 789.944 1349.57 792.438 1349.53 794.196C1349.46 798.35 1347.45 799.653 1347.84 803.97C1353.45 841.937 1354.57 881.659 1348.76 920.402C1344.84 938.2 1340.11 955.643 1335.38 972.949C1320.72 1026.56 1293.03 1074.64 1265.42 1119.87C1261.11 1126.88 1256.54 1133.71 1251.74 1140.34C1216.73 1188.88 1169.85 1226.57 1121.54 1258.04C1050.67 1304.19 967.274 1321.39 887.003 1327.96C820.653 1332.26 759.725 1317.46 699.053 1306.04C688.054 1303.82 677.097 1301.52 666.158 1299.15C626.617 1290.64 576.443 1280.58 538.331 1270.09C522.431 1265.71 516.614 1260.7 495.013 1257.83C495.025 1256.87 495.037 1255.92 495.05 1254.96C476.485 1251.34 464.238 1250.32 443.732 1245.01C432.55 1242.11 409.489 1235.86 390.608 1230.3C380.26 1227.26 371.09 1224.42 365.813 1222.67C357.975 1220.08 361.439 1219.33 354.119 1217.04C341.573 1213.18 314.119 1206.63 296.963 1200.16C281.372 1194.51 256.22 1181.84 244.564 1176.6C235.894 1172.81 227.116 1168.83 218.335 1164.68C184.395 1148.6 148.927 1130.06 117.601 1105.26C106.652 1096.7 94.7215 1083.07 91.5352 1080.03C89.1326 1077.84 87.1543 1076.39 85.4228 1075.28C82.6004 1073.46 80.3179 1072.43 77.7286 1069.99C56.2094 1050.33 31.337 1011.73 20.6804 983.617C20.5746 983.355 20.47 983.094 20.3665 982.833C-0.149402 919.592 3.42113 859.861 0.0965438 799.882C-0.816968 766.212 4.83444 735.009 11.1256 705.098C18.7013 669.436 32.0363 620.038 44.955 576.387C52.3774 551.128 61.6144 528.418 69.7631 511.341C74.7149 501.081 75.6582 504.852 79.6894 496.246C84.2163 486.742 85.3771 480.947 87.5102 476.499C101.589 445.277 140.86 381.43 160.686 356.767C161.761 355.388 162.865 354.2 163.94 353.137C166.657 350.42 169.159 348.569 170.716 346.423C171.815 344.918 173.279 340.731 176.748 335.988C207.713 294.148 236.755 268.358 276.375 237.764C284.294 231.687 292.38 225.633 300.554 219.562C342.369 188.965 390.225 164.588 439.091 143.052C476.374 126.735 514.79 113.3 552.113 102.645C573.15 96.6444 588.65 96.4037 591.544 95.5706C598.065 93.7485 601.515 90.2126 614.597 86.2491C637.136 79.4451 664.192 73.3869 690.874 68.0206C715.578 63.0394 740.021 58.6034 760.185 54.2252C780.898 49.7114 809 41.5107 829.467 37.3252C845.755 33.9445 884.776 28.8337 891.815 26.3157C896.124 24.7713 897.713 21.7743 902.982 20.5937ZM379.249 208.927C379.637 203.643 354.973 221.711 366.028 218.11C368.467 217.275 379.102 210.254 379.249 208.927ZM495.711 1231.07C495.746 1229.8 495.78 1228.53 495.815 1227.26C491.762 1226.74 487.681 1226.22 483.624 1225.69C485.643 1226.98 487.67 1228.28 489.705 1229.58C491.707 1230.07 493.704 1230.57 495.711 1231.07Z" fill="#CBA306"/>
</svg>
